<?xml version="1.0" encoding="UTF-8"?>
<!DOCTYPE svg PUBLIC "-//W3C//DTD SVG 1.1//EN" "http://www.w3.org/Graphics/SVG/1.1/DTD/svg11.dtd">
<svg version="1.1" xmlns="http://www.w3.org/2000/svg" xmlns:xlink="http://www.w3.org/1999/xlink" x="0" y="0" width="800" height="600" viewBox="0, 0, 800, 600">
  <g id="Ebene_1">
    <g>
      <g>
        <path d="M230.171,109.5 L342.171,109.5 L342.171,168.5 L230.171,168.5 L230.171,109.5 z" fill="#FFFFFF"/>
        <path d="M230.171,109.5 L342.171,109.5 L342.171,168.5 L230.171,168.5 L230.171,109.5 z" fill-opacity="0" stroke="#000000" stroke-width="2"/>
      </g>
      <text transform="matrix(1, 0, 0, 1, 285.671, 138.5)">
        <tspan x="-50.028" y="-3.5" font-family="Arial-BoldMT" font-size="15" fill="#333333">Huawei E1820</tspan>
        <tspan x="-43.334" y="13.5" font-family="Arial-BoldMT" font-size="15" fill="#000000">(3G Modem)</tspan>
      </text>
    </g>
    <g>
      <g>
        <path d="M230.171,182.5 L342.171,182.5 L342.171,241.5 L230.171,241.5 L230.171,182.5 z" fill="#FFFFFF"/>
        <path d="M230.171,182.5 L342.171,182.5 L342.171,241.5 L230.171,241.5 L230.171,182.5 z" fill-opacity="0" stroke="#000000" stroke-width="2"/>
      </g>
      <text transform="matrix(1, 0, 0, 1, 285.671, 208.5)">
        <tspan x="-40.009" y="5.5" font-family="Helvetica-Bold" font-size="15" fill="#333333">TL-MR3040</tspan>
      </text>
    </g>
    <path d="M286.223,168.5 L286.119,179.914" fill-opacity="0" stroke="#FF0000" stroke-width="5"/>
    <g>
      <g>
        <path d="M230.119,271 L342.119,271 L342.119,330 L230.119,330 L230.119,271 z" fill="#FFFFFF"/>
        <path d="M230.119,271 L342.119,271 L342.119,330 L230.119,330 L230.119,271 z" fill-opacity="0" stroke="#000000" stroke-width="2"/>
      </g>
      <text transform="matrix(1, 0, 0, 1, 285.619, 296.221)">
        <tspan x="-45.011" y="5.5" font-family="Helvetica-Bold" font-size="15" fill="#333333">TL-841N (v8)</tspan>
      </text>
    </g>
    <path d="M606.435,66.549 L628.808,66.549" fill-opacity="0" stroke="#FF0000" stroke-width="5"/>
    <text transform="matrix(1, 0, 0, 1, 654.329, 66.049)">
      <tspan x="-15.835" y="5.5" font-family="Helvetica-Bold" font-size="15" fill="#000000">USB</tspan>
    </text>
    <path d="M606.435,102.905 L628.808,102.905" fill-opacity="0" stroke="#00BEFF" stroke-width="5"/>
    <path d="M286.119,241.5 L286.119,271" fill-opacity="0" stroke="#00BEFF" stroke-width="5"/>
    <text transform="matrix(1, 0, 0, 1, 654.329, 102.405)">
      <tspan x="-15.414" y="5.5" font-family="Helvetica-Bold" font-size="15" fill="#000000">LAN </tspan>
    </text>
    <g>
      <g>
        <path d="M569.336,179.914 L681.336,179.914 L681.336,238.914 L569.336,238.914 L569.336,179.914 z" fill="#FFFFFF"/>
        <path d="M569.336,179.914 L681.336,179.914 L681.336,238.914 L569.336,238.914 L569.336,179.914 z" fill-opacity="0" stroke="#000000" stroke-width="2"/>
      </g>
      <text transform="matrix(1, 0, 0, 1, 624.836, 210.914)">
        <tspan x="-21.259" y="-12.5" font-family="Helvetica-Bold" font-size="15" fill="#333333">Anker </tspan>
        <tspan x="-39.595" y="5.5" font-family="Helvetica-Bold" font-size="15" fill="#333333">PowerCore </tspan>
        <tspan x="-20.856" y="23.5" font-family="Helvetica-Bold" font-size="15" fill="#333333">20100</tspan>
      </text>
    </g>
    <g>
      <g>
        <path d="M434.868,179.914 L546.868,179.914 L546.868,238.914 L434.868,238.914 L434.868,179.914 z" fill="#FFFFFF"/>
        <path d="M434.868,179.914 L546.868,179.914 L546.868,238.914 L434.868,238.914 L434.868,179.914 z" fill-opacity="0" stroke="#000000" stroke-width="2"/>
      </g>
      <text transform="matrix(1, 0, 0, 1, 490.368, 210.914)">
        <tspan x="-21.259" y="-12.5" font-family="Helvetica-Bold" font-size="15" fill="#333333">Anker </tspan>
        <tspan x="-39.595" y="5.5" font-family="Helvetica-Bold" font-size="15" fill="#333333">PowerCore </tspan>
        <tspan x="-20.856" y="23.5" font-family="Helvetica-Bold" font-size="15" fill="#333333">20100</tspan>
      </text>
    </g>
    <g>
      <g>
        <path d="M56.712,182.5 L168.712,182.5 L168.712,241.5 L56.712,241.5 L56.712,182.5 z" fill="#FFFFFF"/>
        <path d="M56.712,182.5 L168.712,182.5 L168.712,241.5 L56.712,241.5 L56.712,182.5 z" fill-opacity="0" stroke="#000000" stroke-width="2"/>
      </g>
      <text transform="matrix(1, 0, 0, 1, 112.212, 213.5)">
        <tspan x="-21.259" y="-12.5" font-family="Helvetica-Bold" font-size="15" fill="#333333">Anker </tspan>
        <tspan x="-39.595" y="5.5" font-family="Helvetica-Bold" font-size="15" fill="#333333">PowerCore </tspan>
        <tspan x="-20.856" y="23.5" font-family="Helvetica-Bold" font-size="15" fill="#333333">20100</tspan>
      </text>
    </g>
    <g>
      <g>
        <path d="M367.724,271 L479.724,271 L479.724,330 L367.724,330 L367.724,271 z" fill="#FFFFFF"/>
        <path d="M367.724,271 L479.724,271 L479.724,330 L367.724,330 L367.724,271 z" fill-opacity="0" stroke="#000000" stroke-width="2"/>
      </g>
      <text transform="matrix(1, 0, 0, 1, 423.224, 297)">
        <tspan x="-45.011" y="5.5" font-family="Helvetica-Bold" font-size="15" fill="#333333">TL-841N (v8)</tspan>
      </text>
    </g>
    <g>
      <g>
        <path d="M494.435,271 L606.435,271 L606.435,330 L494.435,330 L494.435,271 z" fill="#FFFFFF"/>
        <path d="M494.435,271 L606.435,271 L606.435,330 L494.435,330 L494.435,271 z" fill-opacity="0" stroke="#000000" stroke-width="2"/>
      </g>
      <text transform="matrix(1, 0, 0, 1, 549.935, 297)">
        <tspan x="-45.011" y="5.5" font-family="Helvetica-Bold" font-size="15" fill="#333333">TL-841N (v8)</tspan>
      </text>
    </g>
    <g>
      <g>
        <path d="M617.621,271 L729.621,271 L729.621,330 L617.621,330 L617.621,271 z" fill="#FFFFFF"/>
        <path d="M617.621,271 L729.621,271 L729.621,330 L617.621,330 L617.621,271 z" fill-opacity="0" stroke="#000000" stroke-width="2"/>
      </g>
      <text transform="matrix(1, 0, 0, 1, 673.121, 297)">
        <tspan x="-45.011" y="5.5" font-family="Helvetica-Bold" font-size="15" fill="#333333">TL-841N (v8)</tspan>
      </text>
    </g>
    <path d="M606.435,139 L628.808,139" fill-opacity="0" stroke="#FF9800" stroke-width="5"/>
    <text transform="matrix(1, 0, 0, 1, 689.698, 165.5)">
      <tspan x="-40.001" y="-21.5" font-family="Helvetica-Bold" font-size="15" fill="#000000">USB-Strom</tspan>
    </text>
    <path d="M174.128,225.791 L216.883,225.791" fill-opacity="0" stroke="#FF9800" stroke-width="5"/>
    <path d="M174.128,209.044 L230.119,209.414" fill-opacity="0" stroke="#FF9800" stroke-width="5"/>
    <path d="M216.883,225.791 L215.67,297.348" fill-opacity="0" stroke="#FF9800" stroke-width="5"/>
    <path d="M215.67,297.348 L230.171,297.317" fill-opacity="0" stroke="#FF9800" stroke-width="5"/>
    <path d="M319.746,352.696 L423.724,353.159" fill-opacity="0" stroke="#00BEFF" stroke-width="5"/>
    <path d="M305.679,366.629 L550.435,366.387" fill-opacity="0" stroke="#00BEFF" stroke-width="5"/>
    <path d="M292.779,387.465 L673.621,385.603" fill-opacity="0" stroke="#00BEFF" stroke-width="5"/>
    <path d="M550.435,330 L550.435,366.629" fill-opacity="0" stroke="#00BEFF" stroke-width="5"/>
    <path d="M673.621,330 L673.621,385.603" fill-opacity="0" stroke="#00BEFF" stroke-width="5"/>
    <path d="M423.724,330 L423.724,353.159" fill-opacity="0" stroke="#00BEFF" stroke-width="5"/>
    <path d="M319.746,331.788 L319.746,354.947" fill-opacity="0" stroke="#00BEFF" stroke-width="5"/>
    <path d="M305.725,331.788 L305.679,366.629" fill-opacity="0" stroke="#00BEFF" stroke-width="5"/>
    <path d="M292.849,331.788 L292.779,387.465" fill-opacity="0" stroke="#00BEFF" stroke-width="5"/>
    <path d="M638.995,241.5 L638.995,271" fill-opacity="0" stroke="#FF9800" stroke-width="5"/>
    <path d="M584.014,241.5 L584.014,271" fill-opacity="0" stroke="#FF9800" stroke-width="5"/>
    <path d="M465.152,241.5 L465.152,271" fill-opacity="0" stroke="#FF9800" stroke-width="5"/>
  </g>
</svg>
